<svg width="267" height="35" viewBox="0 0 267 35" fill="none" xmlns="http://www.w3.org/2000/svg">
<path d="M25 25.3125V6.04166H0V25.3125H7.8125V27.9167H5.72917V28.9583H19.2708V27.9167H17.1875V25.3125H25ZM1.04167 7.08332H23.9583V21.1458H1.04167V7.08332ZM16.1458 27.9167H8.85417V25.3125H16.1458V27.9167ZM1.04167 24.2708V22.1875H23.9583V24.2708H1.04167Z" fill="#B3757C"/>
<path d="M22.3958 8.125H15.625V9.16667H22.3958V8.125Z" fill="#B3757C"/>
<path d="M14.5833 8.125H11.9792V9.16667H14.5833V8.125Z" fill="#B3757C"/>
<path d="M10.9375 8.125H9.89584V9.16667H10.9375V8.125Z" fill="#B3757C"/>
<path d="M8.85417 8.125H7.8125V9.16667H8.85417V8.125Z" fill="#B3757C"/>
<path d="M22.3958 15.9375H16.1458V16.9792H22.3958V15.9375Z" fill="#B3757C"/>
<path d="M15.1042 15.9375H14.0625V16.9792H15.1042V15.9375Z" fill="#B3757C"/>
<path d="M13.0208 15.9375H11.9792V16.9792H13.0208V15.9375Z" fill="#B3757C"/>
<path d="M22.3958 13.3333H17.1875V14.375H22.3958V13.3333Z" fill="#B3757C"/>
<path d="M16.1458 13.3333H9.89584V14.375H16.1458V13.3333Z" fill="#B3757C"/>
<path d="M13.5417 10.7292H11.4583V11.7708H13.5417V10.7292Z" fill="#B3757C"/>
<path d="M22.3958 10.7292H14.5833V11.7708H22.3958V10.7292Z" fill="#B3757C"/>
<path d="M10.4167 10.7292H2.60417V11.7708H10.4167V10.7292Z" fill="#B3757C"/>
<path d="M22.3958 18.5417H12.5V19.5833H22.3958V18.5417Z" fill="#B3757C"/>
<path d="M8.96199 15.3088L8.2255 16.0453L9.68017 17.5L8.2255 18.9547L8.96199 19.6912L11.1532 17.5L8.96199 15.3088Z" fill="#B3757C"/>
<path d="M4.79533 16.0453L4.05884 15.3088L1.86768 17.5L4.05884 19.6912L4.79533 18.9547L3.34066 17.5L4.79533 16.0453Z" fill="#B3757C"/>
<path d="M7.06767 14.7033L4.9861 19.912L5.95339 20.2985L8.03496 15.0898L7.06767 14.7033Z" fill="#B3757C"/>
<line x1="31.5" x2="31.5" y2="34.02" stroke="black"/>
<mask id="path-19-outside-1_29_115" maskUnits="userSpaceOnUse" x="151" y="6" width="117" height="22" fill="black">
<rect fill="white" x="151" y="6" width="117" height="22"/>
<path d="M159.16 26.24C156.904 26.24 155.168 25.488 153.952 23.984C152.752 22.48 152.152 20.32 152.152 17.504C152.152 14.752 152.752 12.64 153.952 11.168C155.168 9.696 156.904 8.96 159.16 8.96C161.416 8.96 163.144 9.696 164.344 11.168C165.56 12.64 166.168 14.752 166.168 17.504C166.168 20.32 165.56 22.48 164.344 23.984C163.144 25.488 161.416 26.24 159.16 26.24ZM159.16 24.704C160.888 24.704 162.192 24.104 163.072 22.904C163.952 21.688 164.392 19.888 164.392 17.504C164.392 12.832 162.648 10.496 159.16 10.496C155.672 10.496 153.928 12.832 153.928 17.504C153.928 19.888 154.368 21.688 155.248 22.904C156.128 24.104 157.432 24.704 159.16 24.704ZM169.713 7.016H171.345V26H169.713V7.016ZM186.214 18.464C186.214 18.832 186.198 19.2 186.166 19.568H176.614C176.646 21.232 177.014 22.528 177.718 23.456C178.438 24.384 179.43 24.848 180.694 24.848C181.558 24.848 182.286 24.68 182.878 24.344C183.486 24.008 183.99 23.472 184.39 22.736C184.502 22.528 184.67 22.424 184.894 22.424C185.15 22.424 185.502 22.576 185.95 22.88C185.598 23.92 184.95 24.744 184.006 25.352C183.062 25.944 181.958 26.24 180.694 26.24C179.526 26.24 178.502 25.968 177.622 25.424C176.758 24.864 176.094 24.072 175.63 23.048C175.166 22.008 174.934 20.784 174.934 19.376C174.934 17.248 175.462 15.584 176.518 14.384C177.574 13.168 179.022 12.56 180.862 12.56C182.542 12.56 183.854 13.08 184.798 14.12C185.742 15.16 186.214 16.608 186.214 18.464ZM184.534 18.272C184.534 15.392 183.286 13.952 180.79 13.952C179.574 13.952 178.614 14.32 177.91 15.056C177.206 15.792 176.79 16.864 176.662 18.272H184.534ZM189.804 12.8H191.436V26H189.804V12.8ZM190.524 10.376C189.804 10.376 189.444 10.016 189.444 9.296V9.08C189.444 8.36 189.804 8 190.524 8H190.716C191.436 8 191.796 8.36 191.796 9.08V9.296C191.796 10.016 191.436 10.376 190.716 10.376H190.524ZM206.558 22.928C206.558 23.904 206.566 24.568 206.582 24.92C206.614 25.256 206.678 25.56 206.774 25.832C206.39 26.024 205.974 26.12 205.526 26.12C205.286 26.12 205.126 25.952 205.046 25.616C204.966 25.264 204.926 24.576 204.926 23.552V17.048C204.926 15.928 204.718 15.12 204.302 14.624C203.886 14.112 203.214 13.856 202.286 13.856C200.846 13.856 199.374 14.568 197.87 15.992V26H196.238V17.288C196.238 14.92 196.142 13.512 195.95 13.064C196.462 12.824 196.87 12.704 197.174 12.704C197.638 12.704 197.87 13.168 197.87 14.096V14.312C198.606 13.704 199.342 13.264 200.078 12.992C200.83 12.704 201.622 12.56 202.454 12.56C203.83 12.56 204.854 12.936 205.526 13.688C206.214 14.424 206.558 15.552 206.558 17.072V22.928ZM211.367 12.8H212.999V26H211.367V12.8ZM212.087 10.376C211.367 10.376 211.007 10.016 211.007 9.296V9.08C211.007 8.36 211.367 8 212.087 8H212.279C212.999 8 213.359 8.36 213.359 9.08V9.296C213.359 10.016 212.999 10.376 212.279 10.376H212.087ZM228.337 26C228.065 26 227.753 26.016 227.401 26.048C227.113 26.08 226.937 26.096 226.873 26.096C226.569 26.096 226.337 25.968 226.177 25.712L223.081 20.72C222.617 19.968 221.777 19.616 220.561 19.664L219.457 19.712V26H217.825V7.016H219.457V18.224L220.393 18.2C220.729 18.184 221.017 18.12 221.257 18.008C221.497 17.88 221.713 17.688 221.905 17.432L225.505 12.8H227.521L223.249 18.032C223.217 18.064 223.145 18.152 223.033 18.296C222.921 18.424 222.777 18.536 222.601 18.632C223.385 18.84 223.953 19.224 224.305 19.784L228.337 26ZM235.342 26.24C233.486 26.24 232.086 25.664 231.142 24.512C230.198 23.36 229.726 21.648 229.726 19.376C229.726 14.832 231.598 12.56 235.342 12.56C239.086 12.56 240.958 14.832 240.958 19.376C240.958 21.648 240.486 23.36 239.542 24.512C238.598 25.664 237.198 26.24 235.342 26.24ZM235.342 24.896C236.702 24.896 237.694 24.456 238.318 23.576C238.958 22.68 239.278 21.28 239.278 19.376C239.278 17.488 238.958 16.104 238.318 15.224C237.694 14.344 236.702 13.904 235.342 13.904C233.982 13.904 232.982 14.344 232.342 15.224C231.718 16.104 231.406 17.488 231.406 19.376C231.406 21.28 231.718 22.68 232.342 23.576C232.982 24.456 233.982 24.896 235.342 24.896ZM253.17 12.8C252.978 15.264 252.506 17.568 251.754 19.712C251.002 21.84 249.922 23.936 248.514 26H246.954C245.546 23.936 244.466 21.84 243.714 19.712C242.962 17.568 242.49 15.264 242.298 12.8H243.93C244.154 15.12 244.562 17.184 245.154 18.992C245.762 20.784 246.626 22.528 247.746 24.224C248.866 22.528 249.722 20.784 250.314 18.992C250.906 17.184 251.314 15.12 251.538 12.8H253.17ZM264.987 22.712C264.987 23.448 265.043 24.032 265.155 24.464C265.283 24.88 265.499 25.256 265.803 25.592C265.643 25.752 265.451 25.88 265.227 25.976C265.019 26.072 264.819 26.12 264.627 26.12C264.307 26.12 264.035 25.936 263.811 25.568C263.603 25.2 263.467 24.696 263.403 24.056C262.907 24.728 262.243 25.264 261.411 25.664C260.579 26.048 259.707 26.24 258.795 26.24C257.579 26.24 256.603 25.928 255.867 25.304C255.131 24.664 254.763 23.832 254.763 22.808C254.763 21.304 255.491 20.128 256.947 19.28C258.419 18.432 260.555 17.944 263.355 17.816V17.048C263.355 15.992 263.083 15.208 262.539 14.696C262.011 14.168 261.203 13.904 260.115 13.904C259.411 13.904 258.755 14.056 258.147 14.36C257.555 14.648 256.915 15.136 256.227 15.824C256.131 15.92 256.011 15.968 255.867 15.968C255.707 15.968 255.531 15.904 255.339 15.776C255.147 15.632 254.963 15.432 254.787 15.176C255.507 14.328 256.323 13.68 257.235 13.232C258.163 12.784 259.147 12.56 260.187 12.56C261.675 12.56 262.843 12.96 263.691 13.76C264.555 14.56 264.987 15.656 264.987 17.048V22.712ZM258.915 24.896C259.779 24.896 260.595 24.656 261.363 24.176C262.131 23.696 262.795 23.016 263.355 22.136V19.16C258.747 19.352 256.443 20.56 256.443 22.784C256.443 24.192 257.267 24.896 258.915 24.896Z"/>
</mask>
<path d="M159.16 26.24C156.904 26.24 155.168 25.488 153.952 23.984C152.752 22.48 152.152 20.32 152.152 17.504C152.152 14.752 152.752 12.64 153.952 11.168C155.168 9.696 156.904 8.96 159.16 8.96C161.416 8.96 163.144 9.696 164.344 11.168C165.56 12.64 166.168 14.752 166.168 17.504C166.168 20.32 165.56 22.48 164.344 23.984C163.144 25.488 161.416 26.24 159.16 26.24ZM159.16 24.704C160.888 24.704 162.192 24.104 163.072 22.904C163.952 21.688 164.392 19.888 164.392 17.504C164.392 12.832 162.648 10.496 159.16 10.496C155.672 10.496 153.928 12.832 153.928 17.504C153.928 19.888 154.368 21.688 155.248 22.904C156.128 24.104 157.432 24.704 159.16 24.704ZM169.713 7.016H171.345V26H169.713V7.016ZM186.214 18.464C186.214 18.832 186.198 19.2 186.166 19.568H176.614C176.646 21.232 177.014 22.528 177.718 23.456C178.438 24.384 179.43 24.848 180.694 24.848C181.558 24.848 182.286 24.68 182.878 24.344C183.486 24.008 183.99 23.472 184.39 22.736C184.502 22.528 184.67 22.424 184.894 22.424C185.15 22.424 185.502 22.576 185.95 22.88C185.598 23.92 184.95 24.744 184.006 25.352C183.062 25.944 181.958 26.24 180.694 26.24C179.526 26.24 178.502 25.968 177.622 25.424C176.758 24.864 176.094 24.072 175.63 23.048C175.166 22.008 174.934 20.784 174.934 19.376C174.934 17.248 175.462 15.584 176.518 14.384C177.574 13.168 179.022 12.56 180.862 12.56C182.542 12.56 183.854 13.08 184.798 14.12C185.742 15.16 186.214 16.608 186.214 18.464ZM184.534 18.272C184.534 15.392 183.286 13.952 180.79 13.952C179.574 13.952 178.614 14.32 177.91 15.056C177.206 15.792 176.79 16.864 176.662 18.272H184.534ZM189.804 12.8H191.436V26H189.804V12.8ZM190.524 10.376C189.804 10.376 189.444 10.016 189.444 9.296V9.08C189.444 8.36 189.804 8 190.524 8H190.716C191.436 8 191.796 8.36 191.796 9.08V9.296C191.796 10.016 191.436 10.376 190.716 10.376H190.524ZM206.558 22.928C206.558 23.904 206.566 24.568 206.582 24.92C206.614 25.256 206.678 25.56 206.774 25.832C206.39 26.024 205.974 26.12 205.526 26.12C205.286 26.12 205.126 25.952 205.046 25.616C204.966 25.264 204.926 24.576 204.926 23.552V17.048C204.926 15.928 204.718 15.12 204.302 14.624C203.886 14.112 203.214 13.856 202.286 13.856C200.846 13.856 199.374 14.568 197.87 15.992V26H196.238V17.288C196.238 14.92 196.142 13.512 195.95 13.064C196.462 12.824 196.87 12.704 197.174 12.704C197.638 12.704 197.87 13.168 197.87 14.096V14.312C198.606 13.704 199.342 13.264 200.078 12.992C200.83 12.704 201.622 12.56 202.454 12.56C203.83 12.56 204.854 12.936 205.526 13.688C206.214 14.424 206.558 15.552 206.558 17.072V22.928ZM211.367 12.8H212.999V26H211.367V12.8ZM212.087 10.376C211.367 10.376 211.007 10.016 211.007 9.296V9.08C211.007 8.36 211.367 8 212.087 8H212.279C212.999 8 213.359 8.36 213.359 9.08V9.296C213.359 10.016 212.999 10.376 212.279 10.376H212.087ZM228.337 26C228.065 26 227.753 26.016 227.401 26.048C227.113 26.08 226.937 26.096 226.873 26.096C226.569 26.096 226.337 25.968 226.177 25.712L223.081 20.72C222.617 19.968 221.777 19.616 220.561 19.664L219.457 19.712V26H217.825V7.016H219.457V18.224L220.393 18.2C220.729 18.184 221.017 18.12 221.257 18.008C221.497 17.88 221.713 17.688 221.905 17.432L225.505 12.8H227.521L223.249 18.032C223.217 18.064 223.145 18.152 223.033 18.296C222.921 18.424 222.777 18.536 222.601 18.632C223.385 18.84 223.953 19.224 224.305 19.784L228.337 26ZM235.342 26.24C233.486 26.24 232.086 25.664 231.142 24.512C230.198 23.36 229.726 21.648 229.726 19.376C229.726 14.832 231.598 12.56 235.342 12.56C239.086 12.56 240.958 14.832 240.958 19.376C240.958 21.648 240.486 23.36 239.542 24.512C238.598 25.664 237.198 26.24 235.342 26.24ZM235.342 24.896C236.702 24.896 237.694 24.456 238.318 23.576C238.958 22.68 239.278 21.28 239.278 19.376C239.278 17.488 238.958 16.104 238.318 15.224C237.694 14.344 236.702 13.904 235.342 13.904C233.982 13.904 232.982 14.344 232.342 15.224C231.718 16.104 231.406 17.488 231.406 19.376C231.406 21.28 231.718 22.68 232.342 23.576C232.982 24.456 233.982 24.896 235.342 24.896ZM253.17 12.8C252.978 15.264 252.506 17.568 251.754 19.712C251.002 21.84 249.922 23.936 248.514 26H246.954C245.546 23.936 244.466 21.84 243.714 19.712C242.962 17.568 242.49 15.264 242.298 12.8H243.93C244.154 15.12 244.562 17.184 245.154 18.992C245.762 20.784 246.626 22.528 247.746 24.224C248.866 22.528 249.722 20.784 250.314 18.992C250.906 17.184 251.314 15.12 251.538 12.8H253.17ZM264.987 22.712C264.987 23.448 265.043 24.032 265.155 24.464C265.283 24.88 265.499 25.256 265.803 25.592C265.643 25.752 265.451 25.88 265.227 25.976C265.019 26.072 264.819 26.12 264.627 26.12C264.307 26.12 264.035 25.936 263.811 25.568C263.603 25.2 263.467 24.696 263.403 24.056C262.907 24.728 262.243 25.264 261.411 25.664C260.579 26.048 259.707 26.24 258.795 26.24C257.579 26.24 256.603 25.928 255.867 25.304C255.131 24.664 254.763 23.832 254.763 22.808C254.763 21.304 255.491 20.128 256.947 19.28C258.419 18.432 260.555 17.944 263.355 17.816V17.048C263.355 15.992 263.083 15.208 262.539 14.696C262.011 14.168 261.203 13.904 260.115 13.904C259.411 13.904 258.755 14.056 258.147 14.36C257.555 14.648 256.915 15.136 256.227 15.824C256.131 15.92 256.011 15.968 255.867 15.968C255.707 15.968 255.531 15.904 255.339 15.776C255.147 15.632 254.963 15.432 254.787 15.176C255.507 14.328 256.323 13.68 257.235 13.232C258.163 12.784 259.147 12.56 260.187 12.56C261.675 12.56 262.843 12.96 263.691 13.76C264.555 14.56 264.987 15.656 264.987 17.048V22.712ZM258.915 24.896C259.779 24.896 260.595 24.656 261.363 24.176C262.131 23.696 262.795 23.016 263.355 22.136V19.16C258.747 19.352 256.443 20.56 256.443 22.784C256.443 24.192 257.267 24.896 258.915 24.896Z" fill="#B3757C"/>
<path d="M153.952 23.984L153.17 24.6077L153.174 24.6127L153.952 23.984ZM153.952 11.168L153.181 10.5311L153.177 10.5361L153.952 11.168ZM164.344 11.168L163.569 11.7999L163.573 11.8049L164.344 11.168ZM164.344 23.984L163.566 23.3553L163.562 23.3603L164.344 23.984ZM163.072 22.904L163.878 23.4954L163.882 23.4903L163.072 22.904ZM155.248 22.904L154.438 23.4903L154.442 23.4954L155.248 22.904ZM159.16 25.24C157.15 25.24 155.723 24.584 154.73 23.3553L153.174 24.6127C154.613 26.392 156.658 27.24 159.16 27.24V25.24ZM154.734 23.3603C153.727 22.0992 153.152 20.195 153.152 17.504H151.152C151.152 20.445 151.777 22.8608 153.17 24.6077L154.734 23.3603ZM153.152 17.504C153.152 14.8816 153.725 13.0285 154.727 11.7999L153.177 10.5361C151.779 12.2515 151.152 14.6224 151.152 17.504H153.152ZM154.723 11.8049C155.714 10.6055 157.142 9.96 159.16 9.96V7.96C156.666 7.96 154.622 8.7865 153.181 10.5311L154.723 11.8049ZM159.16 9.96C161.178 9.96 162.595 10.6054 163.569 11.7999L165.119 10.5361C163.693 8.78656 161.654 7.96 159.16 7.96V9.96ZM163.573 11.8049C164.588 13.0332 165.168 14.8842 165.168 17.504H167.168C167.168 14.6198 166.532 12.2468 165.115 10.5311L163.573 11.8049ZM165.168 17.504C165.168 20.1924 164.586 22.0946 163.566 23.3553L165.122 24.6127C166.534 22.8654 167.168 20.4476 167.168 17.504H165.168ZM163.562 23.3603C162.586 24.5841 161.171 25.24 159.16 25.24V27.24C161.661 27.24 163.702 26.3919 165.126 24.6077L163.562 23.3603ZM159.16 25.704C161.148 25.704 162.778 24.9961 163.878 23.4954L162.266 22.3126C161.606 23.2119 160.628 23.704 159.16 23.704V25.704ZM163.882 23.4903C164.939 22.0298 165.392 19.984 165.392 17.504H163.392C163.392 19.792 162.965 21.3462 162.262 22.3177L163.882 23.4903ZM165.392 17.504C165.392 15.0726 164.943 13.0669 163.885 11.6498C162.786 10.1778 161.15 9.496 159.16 9.496V11.496C160.658 11.496 161.638 11.9822 162.283 12.8462C162.969 13.7651 163.392 15.2634 163.392 17.504H165.392ZM159.16 9.496C157.17 9.496 155.534 10.1778 154.435 11.6498C153.377 13.0669 152.928 15.0726 152.928 17.504H154.928C154.928 15.2634 155.351 13.7651 156.037 12.8462C156.682 11.9822 157.662 11.496 159.16 11.496V9.496ZM152.928 17.504C152.928 19.984 153.381 22.0298 154.438 23.4903L156.058 22.3177C155.355 21.3462 154.928 19.792 154.928 17.504H152.928ZM154.442 23.4954C155.542 24.9961 157.172 25.704 159.16 25.704V23.704C157.692 23.704 156.714 23.2119 156.054 22.3126L154.442 23.4954ZM169.713 7.016V6.016H168.713V7.016H169.713ZM171.345 7.016H172.345V6.016H171.345V7.016ZM171.345 26V27H172.345V26H171.345ZM169.713 26H168.713V27H169.713V26ZM169.713 8.016H171.345V6.016H169.713V8.016ZM170.345 7.016V26H172.345V7.016H170.345ZM171.345 25H169.713V27H171.345V25ZM170.713 26V7.016H168.713V26H170.713ZM186.166 19.568V20.568H187.083L187.163 19.6546L186.166 19.568ZM176.614 19.568V18.568H175.595L175.615 19.5872L176.614 19.568ZM177.718 23.456L176.922 24.0604L176.928 24.069L177.718 23.456ZM182.878 24.344L182.395 23.4687L182.385 23.4743L182.878 24.344ZM184.39 22.736L185.269 23.2135L185.271 23.2101L184.39 22.736ZM185.95 22.88L186.898 23.2006L187.142 22.4798L186.512 22.0525L185.95 22.88ZM184.006 25.352L184.538 26.1993L184.548 26.1927L184.006 25.352ZM177.622 25.424L177.078 26.2632L177.087 26.269L177.097 26.2746L177.622 25.424ZM175.63 23.048L174.717 23.4554L174.72 23.4607L175.63 23.048ZM176.518 14.384L177.269 15.0446L177.273 15.0397L176.518 14.384ZM184.798 14.12L185.539 13.4479L185.539 13.4479L184.798 14.12ZM184.534 18.272V19.272H185.534V18.272H184.534ZM176.662 18.272L175.666 18.1815L175.567 19.272H176.662V18.272ZM185.214 18.464C185.214 18.803 185.2 19.1421 185.17 19.4814L187.163 19.6546C187.197 19.2579 187.214 18.861 187.214 18.464H185.214ZM186.166 18.568H176.614V20.568H186.166V18.568ZM175.615 19.5872C175.649 21.3753 176.045 22.9053 176.922 24.0604L178.515 22.8516C177.983 22.1507 177.644 21.0887 177.614 19.5488L175.615 19.5872ZM176.928 24.069C177.854 25.2618 179.149 25.848 180.694 25.848V23.848C179.712 23.848 179.023 23.5062 178.508 22.843L176.928 24.069ZM180.694 25.848C181.686 25.848 182.594 25.6551 183.372 25.2137L182.385 23.4743C181.979 23.7049 181.431 23.848 180.694 23.848V25.848ZM183.362 25.2192C184.168 24.7736 184.797 24.0822 185.269 23.2135L183.512 22.2585C183.184 22.8618 182.804 23.2424 182.395 23.4688L183.362 25.2192ZM185.271 23.2101C185.26 23.2301 185.218 23.2955 185.127 23.3523C185.032 23.4107 184.943 23.424 184.894 23.424V21.424C184.622 21.424 184.336 21.4893 184.074 21.6517C183.814 21.8125 183.633 22.0339 183.51 22.2619L185.271 23.2101ZM184.894 23.424C184.836 23.424 184.847 23.4097 184.954 23.4561C185.054 23.4993 185.197 23.5776 185.389 23.7075L186.512 22.0525C186.047 21.737 185.476 21.424 184.894 21.424V23.424ZM185.003 22.5594C184.725 23.3799 184.223 24.0228 183.465 24.5113L184.548 26.1927C185.677 25.4652 186.471 24.4601 186.898 23.2006L185.003 22.5594ZM183.475 24.5048C182.711 24.984 181.796 25.24 180.694 25.24V27.24C182.12 27.24 183.414 26.904 184.538 26.1992L183.475 24.5048ZM180.694 25.24C179.688 25.24 178.851 25.0076 178.148 24.5734L177.097 26.2746C178.154 26.9284 179.365 27.24 180.694 27.24V25.24ZM178.166 24.5848C177.478 24.1385 176.934 23.5016 176.541 22.6353L174.72 23.4607C175.255 24.6424 176.039 25.5895 177.078 26.2632L178.166 24.5848ZM176.544 22.6406C176.149 21.7553 175.934 20.6759 175.934 19.376H173.934C173.934 20.8921 174.184 22.2607 174.717 23.4554L176.544 22.6406ZM175.934 19.376C175.934 17.4095 176.421 16.0088 177.269 15.0446L175.768 13.7234C174.504 15.1592 173.934 17.0865 173.934 19.376H175.934ZM177.273 15.0397C178.111 14.0748 179.266 13.56 180.862 13.56V11.56C178.779 11.56 177.037 12.2612 175.763 13.7283L177.273 15.0397ZM180.862 13.56C182.321 13.56 183.34 14.0017 184.058 14.7921L185.539 13.4479C184.368 12.1583 182.764 11.56 180.862 11.56V13.56ZM184.058 14.7921C184.787 15.5955 185.214 16.7749 185.214 18.464H187.214C187.214 16.4411 186.698 14.7245 185.539 13.4479L184.058 14.7921ZM185.534 18.272C185.534 16.7102 185.199 15.3521 184.354 14.3771C183.485 13.3747 182.233 12.952 180.79 12.952V14.952C181.844 14.952 182.463 15.2493 182.843 15.6869C183.246 16.1519 183.534 16.9538 183.534 18.272H185.534ZM180.79 12.952C179.359 12.952 178.117 13.3938 177.188 14.3648L178.633 15.7472C179.112 15.2462 179.79 14.952 180.79 14.952V12.952ZM177.188 14.3648C176.276 15.3175 175.807 16.6343 175.666 18.1815L177.658 18.3625C177.774 17.0937 178.136 16.2665 178.633 15.7472L177.188 14.3648ZM176.662 19.272H184.534V17.272H176.662V19.272ZM189.804 12.8V11.8H188.804V12.8H189.804ZM191.436 12.8H192.436V11.8H191.436V12.8ZM191.436 26V27H192.436V26H191.436ZM189.804 26H188.804V27H189.804V26ZM189.804 13.8H191.436V11.8H189.804V13.8ZM190.436 12.8V26H192.436V12.8H190.436ZM191.436 25H189.804V27H191.436V25ZM190.804 26V12.8H188.804V26H190.804ZM190.524 9.376C190.424 9.376 190.378 9.3632 190.368 9.35982C190.364 9.35846 190.369 9.35983 190.38 9.36663C190.392 9.37365 190.407 9.38432 190.421 9.39889C190.436 9.41347 190.446 9.42793 190.453 9.43963C190.46 9.45097 190.462 9.45634 190.46 9.45227C190.457 9.44213 190.444 9.39565 190.444 9.296H188.444C188.444 9.81014 188.573 10.3794 189.007 10.8131C189.441 11.2468 190.01 11.376 190.524 11.376V9.376ZM190.444 9.296V9.08H188.444V9.296H190.444ZM190.444 9.08C190.444 8.98035 190.457 8.93386 190.46 8.92373C190.462 8.91966 190.46 8.92503 190.453 8.93637C190.446 8.94806 190.436 8.96253 190.421 8.97711C190.407 8.99168 190.392 9.00235 190.38 9.00937C190.369 9.01617 190.364 9.01754 190.368 9.01618C190.378 9.0128 190.424 9 190.524 9V7C190.01 7 189.441 7.12921 189.007 7.56289C188.573 7.99657 188.444 8.56585 188.444 9.08H190.444ZM190.524 9H190.716V7H190.524V9ZM190.716 9C190.816 9 190.862 9.0128 190.872 9.01618C190.876 9.01754 190.871 9.01617 190.86 9.00937C190.848 9.00235 190.834 8.99168 190.819 8.97711C190.804 8.96253 190.794 8.94806 190.787 8.93637C190.78 8.92503 190.779 8.91966 190.78 8.92373C190.783 8.93386 190.796 8.98035 190.796 9.08H192.796C192.796 8.56585 192.667 7.99657 192.233 7.56289C191.799 7.12921 191.23 7 190.716 7V9ZM190.796 9.08V9.296H192.796V9.08H190.796ZM190.796 9.296C190.796 9.39565 190.783 9.44213 190.78 9.45227C190.779 9.45634 190.78 9.45097 190.787 9.43963C190.794 9.42793 190.804 9.41347 190.819 9.39889C190.834 9.38432 190.848 9.37365 190.86 9.36663C190.871 9.35983 190.876 9.35846 190.872 9.35982C190.862 9.3632 190.816 9.376 190.716 9.376V11.376C191.23 11.376 191.799 11.2468 192.233 10.8131C192.667 10.3794 192.796 9.81014 192.796 9.296H190.796ZM190.716 9.376H190.524V11.376H190.716V9.376ZM206.582 24.92L205.583 24.9654L205.584 24.9902L205.587 25.0148L206.582 24.92ZM206.774 25.832L207.221 26.7264L208.011 26.3316L207.717 25.4992L206.774 25.832ZM205.046 25.616L204.071 25.8376L204.073 25.8476L205.046 25.616ZM204.302 14.624L203.526 15.2546L203.531 15.2606L203.536 15.2666L204.302 14.624ZM197.87 15.992L197.183 15.2658L196.87 15.5617V15.992H197.87ZM197.87 26V27H198.87V26H197.87ZM196.238 26H195.238V27H196.238V26ZM195.95 13.064L195.526 12.1585L194.65 12.569L195.031 13.4579L195.95 13.064ZM197.87 14.312H196.87V16.4352L198.507 15.083L197.87 14.312ZM200.078 12.992L200.425 13.9301L200.436 13.9259L200.078 12.992ZM205.526 13.688L204.78 14.3543L204.788 14.3627L204.796 14.3709L205.526 13.688ZM205.558 22.928C205.558 23.9016 205.566 24.5874 205.583 24.9654L207.581 24.8746C207.566 24.5486 207.558 23.9064 207.558 22.928H205.558ZM205.587 25.0148C205.625 25.4186 205.704 25.8042 205.831 26.1648L207.717 25.4992C207.652 25.3158 207.603 25.0934 207.578 24.8252L205.587 25.0148ZM206.327 24.9376C206.088 25.0571 205.826 25.12 205.526 25.12V27.12C206.122 27.12 206.692 26.9909 207.221 26.7264L206.327 24.9376ZM205.526 25.12C205.585 25.12 205.663 25.1308 205.748 25.1665C205.834 25.2025 205.902 25.2535 205.95 25.3043C206.038 25.3961 206.037 25.4585 206.019 25.3844L204.073 25.8476C204.136 26.1095 204.255 26.4239 204.502 26.6837C204.778 26.9734 205.143 27.12 205.526 27.12V25.12ZM206.021 25.3944C205.97 25.1685 205.926 24.5906 205.926 23.552H203.926C203.926 24.5614 203.962 25.3595 204.071 25.8376L206.021 25.3944ZM205.926 23.552V17.048H203.926V23.552H205.926ZM205.926 17.048C205.926 15.8487 205.712 14.7487 205.068 13.9814L203.536 15.2666C203.724 15.4913 203.926 16.0073 203.926 17.048H205.926ZM205.078 13.9934C204.404 13.1636 203.387 12.856 202.286 12.856V14.856C203.041 14.856 203.368 15.0604 203.526 15.2546L205.078 13.9934ZM202.286 12.856C200.497 12.856 198.791 13.7428 197.183 15.2658L198.558 16.7182C199.957 15.3932 201.195 14.856 202.286 14.856V12.856ZM196.87 15.992V26H198.87V15.992H196.87ZM197.87 25H196.238V27H197.87V25ZM197.238 26V17.288H195.238V26H197.238ZM197.238 17.288C197.238 16.0943 197.214 15.1246 197.164 14.388C197.139 14.0201 197.106 13.6972 197.064 13.4267C197.025 13.1733 196.968 12.9006 196.869 12.6701L195.031 13.4579C195.028 13.4514 195.055 13.5227 195.088 13.7333C195.118 13.9268 195.146 14.1879 195.168 14.524C195.214 15.1954 195.238 16.1137 195.238 17.288H197.238ZM196.375 13.9695C196.849 13.7472 197.094 13.704 197.174 13.704V11.704C196.646 11.704 196.075 11.9008 195.526 12.1585L196.375 13.9695ZM197.174 13.704C197.115 13.704 197.019 13.6864 196.924 13.623C196.835 13.5639 196.803 13.5018 196.802 13.4992C196.801 13.4982 196.807 13.5087 196.814 13.5351C196.822 13.5613 196.832 13.5993 196.84 13.6514C196.858 13.7572 196.87 13.903 196.87 14.096H198.87C198.87 13.5809 198.811 13.0457 198.591 12.6048C198.473 12.3702 198.296 12.1341 198.033 11.9589C197.764 11.7796 197.465 11.704 197.174 11.704V13.704ZM196.87 14.096V14.312H198.87V14.096H196.87ZM198.507 15.083C199.174 14.5316 199.814 14.1556 200.425 13.93L199.731 12.054C198.87 12.3724 198.038 12.8764 197.233 13.541L198.507 15.083ZM200.436 13.9259C201.07 13.683 201.74 13.56 202.454 13.56V11.56C201.504 11.56 200.59 11.725 199.72 12.0581L200.436 13.9259ZM202.454 13.56C203.654 13.56 204.36 13.8838 204.78 14.3543L206.272 13.0217C205.348 11.9882 204.007 11.56 202.454 11.56V13.56ZM204.796 14.3709C205.24 14.8466 205.558 15.6797 205.558 17.072H207.558C207.558 15.4243 207.188 14.0014 206.257 13.0051L204.796 14.3709ZM205.558 17.072V22.928H207.558V17.072H205.558ZM211.367 12.8V11.8H210.367V12.8H211.367ZM212.999 12.8H213.999V11.8H212.999V12.8ZM212.999 26V27H213.999V26H212.999ZM211.367 26H210.367V27H211.367V26ZM211.367 13.8H212.999V11.8H211.367V13.8ZM211.999 12.8V26H213.999V12.8H211.999ZM212.999 25H211.367V27H212.999V25ZM212.367 26V12.8H210.367V26H212.367ZM212.087 9.376C211.987 9.376 211.94 9.3632 211.93 9.35982C211.926 9.35846 211.932 9.35983 211.943 9.36663C211.955 9.37365 211.969 9.38432 211.984 9.39889C211.998 9.41347 212.009 9.42793 212.016 9.43963C212.023 9.45097 212.024 9.45634 212.023 9.45227C212.019 9.44213 212.007 9.39565 212.007 9.296H210.007C210.007 9.81014 210.136 10.3794 210.569 10.8131C211.003 11.2468 211.572 11.376 212.087 11.376V9.376ZM212.007 9.296V9.08H210.007V9.296H212.007ZM212.007 9.08C212.007 8.98035 212.019 8.93386 212.023 8.92373C212.024 8.91966 212.023 8.92503 212.016 8.93637C212.009 8.94806 211.998 8.96253 211.984 8.97711C211.969 8.99168 211.955 9.00235 211.943 9.00937C211.932 9.01617 211.926 9.01754 211.93 9.01618C211.94 9.0128 211.987 9 212.087 9V7C211.572 7 211.003 7.12921 210.569 7.56289C210.136 7.99657 210.007 8.56585 210.007 9.08H212.007ZM212.087 9H212.279V7H212.087V9ZM212.279 9C212.378 9 212.425 9.0128 212.435 9.01618C212.439 9.01754 212.434 9.01617 212.422 9.00937C212.41 9.00235 212.396 8.99168 212.381 8.97711C212.367 8.96253 212.356 8.94806 212.349 8.93637C212.342 8.92503 212.341 8.91966 212.342 8.92373C212.346 8.93386 212.359 8.98035 212.359 9.08H214.359C214.359 8.56585 214.229 7.99657 213.796 7.56289C213.362 7.12921 212.793 7 212.279 7V9ZM212.359 9.08V9.296H214.359V9.08H212.359ZM212.359 9.296C212.359 9.39565 212.346 9.44213 212.342 9.45227C212.341 9.45634 212.342 9.45097 212.349 9.43963C212.356 9.42793 212.367 9.41347 212.381 9.39889C212.396 9.38432 212.41 9.37365 212.422 9.36663C212.434 9.35983 212.439 9.35846 212.435 9.35982C212.425 9.3632 212.378 9.376 212.279 9.376V11.376C212.793 11.376 213.362 11.2468 213.796 10.8131C214.229 10.3794 214.359 9.81014 214.359 9.296H212.359ZM212.279 9.376H212.087V11.376H212.279V9.376ZM228.337 26V27H230.177L229.176 25.4558L228.337 26ZM227.401 26.048L227.31 25.0521L227.3 25.053L227.29 25.0541L227.401 26.048ZM226.177 25.712L225.327 26.2391L225.329 26.242L226.177 25.712ZM223.081 20.72L222.23 21.2451L222.231 21.2471L223.081 20.72ZM220.561 19.664L220.521 18.6648L220.517 18.6649L220.561 19.664ZM219.457 19.712L219.413 18.7129L218.457 18.7545V19.712H219.457ZM219.457 26V27H220.457V26H219.457ZM217.825 26H216.825V27H217.825V26ZM217.825 7.016V6.016H216.825V7.016H217.825ZM219.457 7.016H220.457V6.016H219.457V7.016ZM219.457 18.224H218.457V19.25L219.482 19.2237L219.457 18.224ZM220.393 18.2L220.418 19.1997L220.429 19.1994L220.44 19.1989L220.393 18.2ZM221.257 18.008L221.68 18.9142L221.704 18.9029L221.727 18.8904L221.257 18.008ZM221.905 17.432L221.115 16.8183L221.11 16.8251L221.105 16.832L221.905 17.432ZM225.505 12.8V11.8H225.015L224.715 12.1863L225.505 12.8ZM227.521 12.8L228.295 13.4325L229.628 11.8H227.521V12.8ZM223.249 18.032L223.956 18.7391L223.991 18.7035L224.023 18.6645L223.249 18.032ZM223.033 18.296L223.785 18.9545L223.804 18.9328L223.822 18.9099L223.033 18.296ZM222.601 18.632L222.122 17.7541L219.92 18.9553L222.344 19.5986L222.601 18.632ZM224.305 19.784L223.458 20.3162L223.462 20.3222L223.466 20.3282L224.305 19.784ZM228.337 25C228.027 25 227.684 25.0181 227.31 25.0521L227.491 27.0439C227.821 27.0139 228.102 27 228.337 27V25ZM227.29 25.0541C227.149 25.0698 227.041 25.081 226.962 25.0881C226.923 25.0917 226.894 25.0939 226.875 25.0952C226.852 25.0968 226.855 25.096 226.873 25.096V27.096C227.006 27.096 227.248 27.0711 227.511 27.0419L227.29 25.0541ZM226.873 25.096C226.864 25.096 226.901 25.0955 226.954 25.1244C227.007 25.1536 227.027 25.186 227.025 25.182L225.329 26.242C225.673 26.7929 226.227 27.096 226.873 27.096V25.096ZM227.026 25.1849L223.93 20.1929L222.231 21.2471L225.327 26.2391L227.026 25.1849ZM223.932 20.1949C223.209 19.024 221.944 18.6086 220.521 18.6648L220.6 20.6632C221.609 20.6234 222.024 20.912 222.23 21.2451L223.932 20.1949ZM220.517 18.6649L219.413 18.7129L219.5 20.7111L220.604 20.6631L220.517 18.6649ZM218.457 19.712V26H220.457V19.712H218.457ZM219.457 25H217.825V27H219.457V25ZM218.825 26V7.016H216.825V26H218.825ZM217.825 8.016H219.457V6.016H217.825V8.016ZM218.457 7.016V18.224H220.457V7.016H218.457ZM219.482 19.2237L220.418 19.1997L220.367 17.2003L219.431 17.2243L219.482 19.2237ZM220.44 19.1989C220.872 19.1783 221.294 19.0939 221.68 18.9142L220.834 17.1018C220.739 17.1461 220.585 17.1897 220.345 17.2011L220.44 19.1989ZM221.727 18.8904C222.117 18.6824 222.44 18.3846 222.705 18.032L221.105 16.832C220.985 16.9914 220.876 17.0776 220.786 17.1256L221.727 18.8904ZM222.694 18.0457L226.294 13.4137L224.715 12.1863L221.115 16.8183L222.694 18.0457ZM225.505 13.8H227.521V11.8H225.505V13.8ZM226.746 12.1675L222.474 17.3995L224.023 18.6645L228.295 13.4325L226.746 12.1675ZM222.542 17.3249C222.455 17.411 222.341 17.5568 222.243 17.6821L223.822 18.9099C223.876 18.8411 223.916 18.7903 223.945 18.7552C223.959 18.7377 223.968 18.727 223.973 18.7214C223.98 18.7132 223.972 18.7223 223.956 18.7391L222.542 17.3249ZM222.28 17.6375C222.258 17.6625 222.212 17.7047 222.122 17.7541L223.079 19.5099C223.341 19.3673 223.583 19.1855 223.785 18.9545L222.28 17.6375ZM222.344 19.5986C222.942 19.7571 223.27 20.0165 223.458 20.3162L225.151 19.2518C224.636 18.4315 223.827 17.9229 222.857 17.6654L222.344 19.5986ZM223.466 20.3282L227.498 26.5442L229.176 25.4558L225.144 19.2398L223.466 20.3282ZM231.142 24.512L231.915 23.8782L231.915 23.8782L231.142 24.512ZM239.542 24.512L240.315 25.1458L240.315 25.1458L239.542 24.512ZM238.318 23.576L237.504 22.9948L237.502 22.9976L238.318 23.576ZM238.318 15.224L237.502 15.8025L237.509 15.8122L238.318 15.224ZM232.342 15.224L231.533 14.6358L231.526 14.6456L232.342 15.224ZM232.342 23.576L231.521 24.1475L231.527 24.1559L231.533 24.1642L232.342 23.576ZM235.342 25.24C233.705 25.24 232.623 24.7425 231.915 23.8782L230.368 25.1458C231.548 26.5855 233.267 27.24 235.342 27.24V25.24ZM231.915 23.8782C231.177 22.9777 230.726 21.5328 230.726 19.376H228.726C228.726 21.7632 229.218 23.7423 230.368 25.1458L231.915 23.8782ZM230.726 19.376C230.726 17.2161 231.174 15.7821 231.901 14.8999C232.598 14.0547 233.68 13.56 235.342 13.56V11.56C233.259 11.56 231.533 12.2013 230.358 13.6281C229.213 15.0179 228.726 16.9919 228.726 19.376H230.726ZM235.342 13.56C237.003 13.56 238.085 14.0547 238.782 14.8999C239.509 15.7821 239.958 17.2161 239.958 19.376H241.958C241.958 16.9919 241.47 15.0179 240.325 13.6281C239.15 12.2013 237.424 11.56 235.342 11.56V13.56ZM239.958 19.376C239.958 21.5328 239.506 22.9777 238.768 23.8782L240.315 25.1458C241.465 23.7423 241.958 21.7632 241.958 19.376H239.958ZM238.768 23.8782C238.06 24.7425 236.979 25.24 235.342 25.24V27.24C237.417 27.24 239.135 26.5855 240.315 25.1458L238.768 23.8782ZM235.342 25.896C236.931 25.896 238.273 25.3675 239.133 24.1544L237.502 22.9976C237.114 23.5445 236.472 23.896 235.342 23.896V25.896ZM239.131 24.1572C239.953 23.0074 240.278 21.3531 240.278 19.376H238.278C238.278 21.2069 237.963 22.3526 237.504 22.9948L239.131 24.1572ZM240.278 19.376C240.278 17.4151 239.953 15.7722 239.126 14.6358L237.509 15.8122C237.962 16.4358 238.278 17.5609 238.278 19.376H240.278ZM239.133 14.6456C238.273 13.4325 236.931 12.904 235.342 12.904V14.904C236.472 14.904 237.114 15.2555 237.502 15.8024L239.133 14.6456ZM235.342 12.904C233.751 12.904 232.408 13.4325 231.533 14.6358L233.15 15.8122C233.555 15.2554 234.212 14.904 235.342 14.904V12.904ZM231.526 14.6456C230.721 15.78 230.406 17.4184 230.406 19.376H232.406C232.406 17.5576 232.714 16.428 233.157 15.8024L231.526 14.6456ZM230.406 19.376C230.406 21.3498 230.722 22.9997 231.521 24.1475L233.162 23.0045C232.714 22.3603 232.406 21.2102 232.406 19.376H230.406ZM231.533 24.1642C232.408 25.3674 233.751 25.896 235.342 25.896V23.896C234.212 23.896 233.555 23.5446 233.15 22.9878L231.533 24.1642ZM253.17 12.8L254.167 12.8777L254.251 11.8H253.17V12.8ZM251.754 19.712L252.697 20.0452L252.698 20.043L251.754 19.712ZM248.514 26V27H249.042L249.34 26.5635L248.514 26ZM246.954 26L246.128 26.5635L246.426 27H246.954V26ZM243.714 19.712L242.77 20.043L242.771 20.0452L243.714 19.712ZM242.298 12.8V11.8H241.217L241.301 12.8777L242.298 12.8ZM243.93 12.8L244.925 12.7039L244.838 11.8H243.93V12.8ZM245.154 18.992L244.204 19.3032L244.207 19.3133L245.154 18.992ZM247.746 24.224L246.912 24.7751L247.746 26.0387L248.581 24.7751L247.746 24.224ZM250.314 18.992L251.264 19.3057L251.264 19.3032L250.314 18.992ZM251.538 12.8V11.8H250.63L250.543 12.7039L251.538 12.8ZM252.173 12.7223C251.987 15.1074 251.531 17.3256 250.81 19.381L252.698 20.043C253.481 17.8104 253.969 15.4206 254.167 12.8777L252.173 12.7223ZM250.811 19.3788C250.091 21.4171 249.052 23.4363 247.688 25.4365L249.34 26.5635C250.792 24.4357 251.913 22.2629 252.697 20.0452L250.811 19.3788ZM248.514 25H246.954V27H248.514V25ZM247.78 25.4365C246.416 23.4363 245.377 21.4171 244.657 19.3788L242.771 20.0452C243.555 22.2629 244.676 24.4357 246.128 26.5635L247.78 25.4365ZM244.658 19.381C243.937 17.3256 243.481 15.1074 243.295 12.7223L241.301 12.8777C241.499 15.4206 241.987 17.8104 242.77 20.043L244.658 19.381ZM242.298 13.8H243.93V11.8H242.298V13.8ZM242.935 12.8961C243.164 15.2735 243.584 17.4118 244.204 19.3032L246.104 18.6808C245.54 16.9562 245.144 14.9665 244.925 12.7039L242.935 12.8961ZM244.207 19.3133C244.845 21.1921 245.748 23.0129 246.912 24.7751L248.581 23.6729C247.504 22.0431 246.68 20.3759 246.101 18.6707L244.207 19.3133ZM248.581 24.7751C249.745 23.011 250.642 21.1877 251.264 19.3057L249.365 18.6783C248.802 20.3803 247.987 22.045 246.912 23.6729L248.581 24.7751ZM251.264 19.3032C251.884 17.4118 252.304 15.2735 252.533 12.8961L250.543 12.7039C250.324 14.9665 249.928 16.9562 249.364 18.6808L251.264 19.3032ZM251.538 13.8H253.17V11.8H251.538V13.8ZM265.155 24.464L264.187 24.715L264.192 24.7367L264.199 24.7581L265.155 24.464ZM265.803 25.592L266.51 26.2991L267.182 25.6265L266.544 24.9211L265.803 25.592ZM265.227 25.976L264.833 25.0569L264.82 25.0623L264.807 25.068L265.227 25.976ZM263.811 25.568L262.94 26.0601L262.948 26.0741L262.956 26.0879L263.811 25.568ZM263.403 24.056L264.398 23.9565L264.139 21.3739L262.598 23.4621L263.403 24.056ZM261.411 25.664L261.83 26.572L261.837 26.5687L261.844 26.5653L261.411 25.664ZM255.867 25.304L255.21 26.0587L255.22 26.0668L255.867 25.304ZM256.947 19.28L256.447 18.4135L256.443 18.4159L256.947 19.28ZM263.355 17.816L263.4 18.815L264.355 18.7713V17.816H263.355ZM262.539 14.696L261.831 15.4031L261.842 15.4138L261.853 15.4242L262.539 14.696ZM258.147 14.36L258.584 15.2593L258.594 15.2544L258.147 14.36ZM256.227 15.824L255.519 15.1169L255.519 15.1169L256.227 15.824ZM255.339 15.776L254.738 16.576L254.761 16.5927L254.784 16.608L255.339 15.776ZM254.787 15.176L254.024 14.5288L253.529 15.112L253.962 15.7425L254.787 15.176ZM257.235 13.232L256.8 12.3314L256.794 12.3344L257.235 13.232ZM263.691 13.76L263.004 14.4874L263.011 14.4938L263.691 13.76ZM263.355 22.136L264.198 22.6729L264.355 22.4272V22.136H263.355ZM263.355 19.16H264.355V18.1175L263.313 18.1609L263.355 19.16ZM263.987 22.712C263.987 23.4855 264.044 24.1653 264.187 24.715L266.122 24.213C266.041 23.8987 265.987 23.4105 265.987 22.712H263.987ZM264.199 24.7581C264.372 25.3196 264.663 25.823 265.061 26.2629L266.544 24.9211C266.334 24.689 266.193 24.4404 266.11 24.1699L264.199 24.7581ZM265.095 24.8849C265.032 24.9482 264.949 25.0071 264.833 25.0569L265.62 26.8951C265.952 26.7529 266.253 26.5558 266.51 26.2991L265.095 24.8849ZM264.807 25.068C264.706 25.115 264.649 25.12 264.627 25.12V27.12C264.988 27.12 265.331 27.029 265.646 26.884L264.807 25.068ZM264.627 25.12C264.644 25.12 264.667 25.1227 264.692 25.1306C264.717 25.1383 264.734 25.1481 264.743 25.1537C264.75 25.1588 264.746 25.1573 264.731 25.1411C264.717 25.1247 264.694 25.0955 264.665 25.0481L262.956 26.0879C263.291 26.6381 263.84 27.12 264.627 27.12V25.12ZM264.681 25.0759C264.567 24.875 264.454 24.5235 264.398 23.9565L262.407 24.1555C262.479 24.8685 262.638 25.525 262.94 26.0601L264.681 25.0759ZM262.598 23.4621C262.209 23.9896 261.678 24.4258 260.977 24.7627L261.844 26.5653C262.807 26.1022 263.604 25.4664 264.207 24.6499L262.598 23.4621ZM260.991 24.756C260.29 25.0797 259.561 25.24 258.795 25.24V27.24C259.852 27.24 260.867 27.0163 261.83 26.572L260.991 24.756ZM258.795 25.24C257.752 25.24 257.025 24.9755 256.513 24.5412L255.22 26.0668C256.18 26.8805 257.405 27.24 258.795 27.24V25.24ZM256.523 24.5494C256.017 24.1098 255.763 23.559 255.763 22.808H253.763C253.763 24.105 254.244 25.2182 255.21 26.0586L256.523 24.5494ZM255.763 22.808C255.763 21.7086 256.257 20.8389 257.45 20.1441L256.443 18.4159C254.724 19.4171 253.763 20.8994 253.763 22.808H255.763ZM257.446 20.1465C258.717 19.414 260.668 18.9398 263.4 18.815L263.309 16.817C260.441 16.9482 258.12 17.45 256.447 18.4135L257.446 20.1465ZM264.355 17.816V17.048H262.355V17.816H264.355ZM264.355 17.048C264.355 15.8327 264.04 14.736 263.224 13.9678L261.853 15.4242C262.125 15.68 262.355 16.1513 262.355 17.048H264.355ZM263.246 13.9889C262.459 13.2022 261.347 12.904 260.115 12.904V14.904C261.058 14.904 261.562 15.1338 261.831 15.4031L263.246 13.9889ZM260.115 12.904C259.261 12.904 258.451 13.0896 257.699 13.4656L258.594 15.2544C259.058 15.0224 259.56 14.904 260.115 14.904V12.904ZM257.709 13.4608C256.982 13.8147 256.252 14.3842 255.519 15.1169L256.934 16.5311C257.577 15.8878 258.127 15.4813 258.584 15.2592L257.709 13.4608ZM255.519 15.1169C255.562 15.0741 255.621 15.0323 255.693 15.0035C255.764 14.9752 255.826 14.968 255.867 14.968V16.968C256.258 16.968 256.638 16.8269 256.934 16.5311L255.519 15.1169ZM255.867 14.968C255.921 14.968 255.953 14.979 255.956 14.9802C255.958 14.9808 255.953 14.9792 255.942 14.9734C255.931 14.9676 255.915 14.9583 255.893 14.9439L254.784 16.608C255.071 16.7994 255.44 16.968 255.867 16.968V14.968ZM255.939 14.976C255.855 14.9131 255.742 14.8009 255.611 14.6095L253.962 15.7425C254.183 16.0631 254.438 16.3509 254.738 16.576L255.939 14.976ZM255.549 15.8232C256.188 15.0698 256.898 14.5115 257.675 14.1296L256.794 12.3344C255.747 12.8485 254.825 13.5862 254.024 14.5288L255.549 15.8232ZM257.669 14.1326C258.46 13.7506 259.296 13.56 260.187 13.56V11.56C258.997 11.56 257.865 11.8174 256.8 12.3314L257.669 14.1326ZM260.187 13.56C261.493 13.56 262.389 13.907 263.004 14.4874L264.377 13.0326C263.296 12.013 261.856 11.56 260.187 11.56V13.56ZM263.011 14.4938C263.633 15.07 263.987 15.8793 263.987 17.048H265.987C265.987 15.4327 265.476 14.05 264.37 13.0262L263.011 14.4938ZM263.987 17.048V22.712H265.987V17.048H263.987ZM258.915 25.896C259.975 25.896 260.974 25.5983 261.892 25.024L260.833 23.328C260.215 23.7137 259.582 23.896 258.915 23.896V25.896ZM261.892 25.024C262.805 24.4538 263.57 23.6596 264.198 22.6729L262.511 21.5991C262.019 22.3724 261.456 22.9382 260.833 23.328L261.892 25.024ZM264.355 22.136V19.16H262.355V22.136H264.355ZM263.313 18.1609C260.958 18.259 259.054 18.6177 257.706 19.3243C256.293 20.0655 255.443 21.2294 255.443 22.784H257.443C257.443 22.1146 257.744 21.5625 258.635 21.0957C259.591 20.5943 261.143 20.253 263.396 20.1591L263.313 18.1609ZM255.443 22.784C255.443 23.6869 255.714 24.5329 256.411 25.1283C257.078 25.6979 257.971 25.896 258.915 25.896V23.896C258.21 23.896 257.867 23.7421 257.71 23.6077C257.583 23.4991 257.443 23.2891 257.443 22.784H255.443Z" fill="#D09C9C" mask="url(#path-19-outside-1_29_115)"/>
<path d="M49.12 24.56C49.12 25.136 49.032 25.52 48.856 25.712C48.696 25.904 48.368 26 47.872 26H39.064V9.2H49.096V10.64H40.792V16.688H47.944V18.128H40.792V24.56H49.12ZM63.1257 26C62.8537 26 62.5417 26.016 62.1897 26.048C61.9017 26.08 61.7257 26.096 61.6617 26.096C61.3577 26.096 61.1257 25.968 60.9657 25.712L57.8697 20.72C57.4057 19.968 56.5657 19.616 55.3497 19.664L54.2457 19.712V26H52.6137V7.016H54.2457V18.224L55.1817 18.2C55.5177 18.184 55.8057 18.12 56.0457 18.008C56.2857 17.88 56.5017 17.688 56.6937 17.432L60.2937 12.8H62.3097L58.0377 18.032C58.0057 18.064 57.9337 18.152 57.8217 18.296C57.7097 18.424 57.5657 18.536 57.3897 18.632C58.1737 18.84 58.7417 19.224 59.0937 19.784L63.1257 26ZM74.9787 22.712C74.9787 23.448 75.0347 24.032 75.1467 24.464C75.2747 24.88 75.4907 25.256 75.7947 25.592C75.6347 25.752 75.4427 25.88 75.2187 25.976C75.0107 26.072 74.8107 26.12 74.6187 26.12C74.2987 26.12 74.0267 25.936 73.8027 25.568C73.5947 25.2 73.4587 24.696 73.3947 24.056C72.8987 24.728 72.2347 25.264 71.4027 25.664C70.5707 26.048 69.6987 26.24 68.7867 26.24C67.5707 26.24 66.5947 25.928 65.8587 25.304C65.1227 24.664 64.7547 23.832 64.7547 22.808C64.7547 21.304 65.4827 20.128 66.9387 19.28C68.4107 18.432 70.5467 17.944 73.3467 17.816V17.048C73.3467 15.992 73.0747 15.208 72.5307 14.696C72.0027 14.168 71.1947 13.904 70.1067 13.904C69.4027 13.904 68.7467 14.056 68.1387 14.36C67.5467 14.648 66.9067 15.136 66.2187 15.824C66.1227 15.92 66.0027 15.968 65.8587 15.968C65.6987 15.968 65.5227 15.904 65.3307 15.776C65.1387 15.632 64.9547 15.432 64.7787 15.176C65.4987 14.328 66.3147 13.68 67.2267 13.232C68.1547 12.784 69.1387 12.56 70.1787 12.56C71.6667 12.56 72.8347 12.96 73.6827 13.76C74.5467 14.56 74.9787 15.656 74.9787 17.048V22.712ZM68.9067 24.896C69.7707 24.896 70.5867 24.656 71.3547 24.176C72.1227 23.696 72.7867 23.016 73.3467 22.136V19.16C68.7387 19.352 66.4347 20.56 66.4347 22.784C66.4347 24.192 67.2587 24.896 68.9067 24.896ZM85.1455 24.392C85.2575 24.472 85.3455 24.592 85.4095 24.752C85.4895 24.896 85.5295 25.048 85.5295 25.208C85.5295 25.512 85.4015 25.728 85.1455 25.856C84.6335 26.112 83.9695 26.24 83.1535 26.24C82.1135 26.24 81.2815 25.96 80.6575 25.4C80.0335 24.824 79.7215 24.056 79.7215 23.096V14.096H77.2255V12.8H79.7215V9.2H81.3535V12.8H84.8095V14.096H81.3535V22.784C81.3535 24.128 81.9295 24.8 83.0815 24.8C83.8175 24.8 84.5055 24.664 85.1455 24.392ZM98.3941 18.464C98.3941 18.832 98.3781 19.2 98.3461 19.568H88.7941C88.8261 21.232 89.1941 22.528 89.8981 23.456C90.6181 24.384 91.6101 24.848 92.8741 24.848C93.7381 24.848 94.4661 24.68 95.0581 24.344C95.6661 24.008 96.1701 23.472 96.5701 22.736C96.6821 22.528 96.8501 22.424 97.0741 22.424C97.3301 22.424 97.6821 22.576 98.1301 22.88C97.7781 23.92 97.1301 24.744 96.1861 25.352C95.2421 25.944 94.1381 26.24 92.8741 26.24C91.7061 26.24 90.6821 25.968 89.8021 25.424C88.9381 24.864 88.2741 24.072 87.8101 23.048C87.3461 22.008 87.1141 20.784 87.1141 19.376C87.1141 17.248 87.6421 15.584 88.6981 14.384C89.7541 13.168 91.2021 12.56 93.0421 12.56C94.7221 12.56 96.0341 13.08 96.9781 14.12C97.9221 15.16 98.3941 16.608 98.3941 18.464ZM96.7141 18.272C96.7141 15.392 95.4661 13.952 92.9701 13.952C91.7541 13.952 90.7941 14.32 90.0901 15.056C89.3861 15.792 88.9701 16.864 88.8421 18.272H96.7141ZM106.688 12.632C107.248 12.632 107.672 12.728 107.96 12.92C108.264 13.096 108.416 13.368 108.416 13.736C108.416 13.992 108.328 14.224 108.152 14.432C107.768 14.224 107.24 14.12 106.568 14.12C105.496 14.12 104.632 14.544 103.976 15.392C103.336 16.24 103.016 17.352 103.016 18.728V26H101.384V12.8H103.016V15.176C103.384 14.44 103.904 13.832 104.576 13.352C105.248 12.872 105.952 12.632 106.688 12.632ZM111.593 12.8H113.225V26H111.593V12.8ZM112.313 10.376C111.593 10.376 111.233 10.016 111.233 9.296V9.08C111.233 8.36 111.593 8 112.313 8H112.505C113.225 8 113.585 8.36 113.585 9.08V9.296C113.585 10.016 113.225 10.376 112.505 10.376H112.313ZM128.347 22.928C128.347 23.904 128.355 24.568 128.371 24.92C128.403 25.256 128.467 25.56 128.563 25.832C128.179 26.024 127.763 26.12 127.315 26.12C127.075 26.12 126.915 25.952 126.835 25.616C126.755 25.264 126.715 24.576 126.715 23.552V17.048C126.715 15.928 126.507 15.12 126.091 14.624C125.675 14.112 125.003 13.856 124.075 13.856C122.635 13.856 121.163 14.568 119.659 15.992V26H118.027V17.288C118.027 14.92 117.931 13.512 117.739 13.064C118.251 12.824 118.659 12.704 118.963 12.704C119.427 12.704 119.659 13.168 119.659 14.096V14.312C120.395 13.704 121.131 13.264 121.867 12.992C122.619 12.704 123.411 12.56 124.243 12.56C125.619 12.56 126.643 12.936 127.315 13.688C128.003 14.424 128.347 15.552 128.347 17.072V22.928ZM141.94 22.712C141.94 23.448 141.996 24.032 142.108 24.464C142.236 24.88 142.452 25.256 142.756 25.592C142.596 25.752 142.404 25.88 142.18 25.976C141.972 26.072 141.772 26.12 141.58 26.12C141.26 26.12 140.988 25.936 140.764 25.568C140.556 25.2 140.42 24.696 140.356 24.056C139.86 24.728 139.196 25.264 138.364 25.664C137.532 26.048 136.66 26.24 135.748 26.24C134.532 26.24 133.556 25.928 132.82 25.304C132.084 24.664 131.716 23.832 131.716 22.808C131.716 21.304 132.444 20.128 133.9 19.28C135.372 18.432 137.508 17.944 140.308 17.816V17.048C140.308 15.992 140.036 15.208 139.492 14.696C138.964 14.168 138.156 13.904 137.068 13.904C136.364 13.904 135.708 14.056 135.1 14.36C134.508 14.648 133.868 15.136 133.18 15.824C133.084 15.92 132.964 15.968 132.82 15.968C132.66 15.968 132.484 15.904 132.292 15.776C132.1 15.632 131.916 15.432 131.74 15.176C132.46 14.328 133.276 13.68 134.188 13.232C135.116 12.784 136.1 12.56 137.14 12.56C138.628 12.56 139.796 12.96 140.644 13.76C141.508 14.56 141.94 15.656 141.94 17.048V22.712ZM135.868 24.896C136.732 24.896 137.548 24.656 138.316 24.176C139.084 23.696 139.748 23.016 140.308 22.136V19.16C135.7 19.352 133.396 20.56 133.396 22.784C133.396 24.192 134.22 24.896 135.868 24.896Z" fill="black"/>
</svg>
